<mxfile host="app.diagrams.net" agent="Mozilla/5.0 (X11; Ubuntu; Linux x86_64; rv:136.0) Gecko/20100101 Firefox/136.0" version="26.2.6">
  <diagram name="Page-1" id="52iaRe6955q-y5ZXtpo0">
    <mxGraphModel dx="1356" dy="800" grid="1" gridSize="10" guides="1" tooltips="1" connect="1" arrows="1" fold="1" page="1" pageScale="1" pageWidth="850" pageHeight="1100" math="1" shadow="0">
      <root>
        <mxCell id="0" />
        <mxCell id="1" parent="0" />
        <mxCell id="1pObTijFMrVAMqZZZPtP-7" value="&lt;font style=&quot;font-size: 24px;&quot;&gt;Safe region&lt;/font&gt;" style="ellipse;whiteSpace=wrap;html=1;fillColor=#B9E0A5;" parent="1" vertex="1">
          <mxGeometry x="540" y="180" width="300" height="200" as="geometry" />
        </mxCell>
        <mxCell id="1pObTijFMrVAMqZZZPtP-13" value="" style="shape=cube;whiteSpace=wrap;html=1;boundedLbl=1;backgroundOutline=1;darkOpacity=0.05;darkOpacity2=0.1;fillColor=#FFFF33;" parent="1" vertex="1">
          <mxGeometry x="380" y="125" width="30" height="365" as="geometry" />
        </mxCell>
        <mxCell id="1pObTijFMrVAMqZZZPtP-15" value="" style="endArrow=classic;html=1;rounded=0;entryX=0.043;entryY=0.325;entryDx=0;entryDy=0;entryPerimeter=0;strokeWidth=4;fillColor=#1ba1e2;strokeColor=#006EAF;" parent="1" target="1pObTijFMrVAMqZZZPtP-7" edge="1">
          <mxGeometry width="50" height="50" relative="1" as="geometry">
            <mxPoint x="110" y="250" as="sourcePoint" />
            <mxPoint x="370" y="250" as="targetPoint" />
          </mxGeometry>
        </mxCell>
        <mxCell id="1pObTijFMrVAMqZZZPtP-16" value="" style="endArrow=classic;html=1;rounded=0;dashed=1;strokeWidth=5;fillColor=#d80073;strokeColor=#C73500;" parent="1" edge="1">
          <mxGeometry width="50" height="50" relative="1" as="geometry">
            <mxPoint x="400" y="400" as="sourcePoint" />
            <mxPoint x="620" y="510" as="targetPoint" />
          </mxGeometry>
        </mxCell>
        <mxCell id="1pObTijFMrVAMqZZZPtP-18" value="" style="endArrow=classic;html=1;rounded=0;strokeWidth=4;fillColor=#fa6800;strokeColor=#C73500;entryX=0.403;entryY=1.01;entryDx=0;entryDy=0;entryPerimeter=0;" parent="1" edge="1">
          <mxGeometry width="50" height="50" relative="1" as="geometry">
            <mxPoint x="401" y="398" as="sourcePoint" />
            <mxPoint x="661.9000000000001" y="380" as="targetPoint" />
          </mxGeometry>
        </mxCell>
        <mxCell id="1pObTijFMrVAMqZZZPtP-20" value="&lt;font style=&quot;font-size: 30px;&quot;&gt;$$\pi$$&lt;/font&gt;" style="shape=parallelogram;perimeter=parallelogramPerimeter;whiteSpace=wrap;html=1;fixedSize=1;" parent="1" vertex="1">
          <mxGeometry y="220" width="120" height="60" as="geometry" />
        </mxCell>
        <mxCell id="1pObTijFMrVAMqZZZPtP-24" value="" style="endArrow=none;html=1;rounded=0;exitX=1;exitY=0.75;exitDx=0;exitDy=0;fillColor=#fa6800;strokeColor=#C73500;strokeWidth=5;endFill=0;" parent="1" source="1pObTijFMrVAMqZZZPtP-20" edge="1">
          <mxGeometry width="50" height="50" relative="1" as="geometry">
            <mxPoint x="400" y="440" as="sourcePoint" />
            <mxPoint x="410" y="400" as="targetPoint" />
          </mxGeometry>
        </mxCell>
        <mxCell id="1pObTijFMrVAMqZZZPtP-25" value="&lt;font style=&quot;font-size: 23px;&quot;&gt;$$a_1$$&lt;/font&gt;" style="text;html=1;align=center;verticalAlign=middle;resizable=0;points=[];autosize=1;strokeColor=none;fillColor=none;" parent="1" vertex="1">
          <mxGeometry x="245" y="213" width="110" height="40" as="geometry" />
        </mxCell>
        <mxCell id="1pObTijFMrVAMqZZZPtP-26" value="&lt;font style=&quot;font-size: 23px;&quot;&gt;$$a_2$$&lt;/font&gt;" style="text;html=1;align=center;verticalAlign=middle;resizable=0;points=[];autosize=1;strokeColor=none;fillColor=none;" parent="1" vertex="1">
          <mxGeometry x="165" y="330" width="110" height="40" as="geometry" />
        </mxCell>
        <mxCell id="1pObTijFMrVAMqZZZPtP-28" value="&lt;font style=&quot;font-size: 23px;&quot;&gt;$$\bar{a}_2$$&lt;/font&gt;" style="text;html=1;align=center;verticalAlign=middle;resizable=0;points=[];autosize=1;strokeColor=none;fillColor=none;" parent="1" vertex="1">
          <mxGeometry x="420" y="350" width="170" height="40" as="geometry" />
        </mxCell>
        <mxCell id="hwfw9dhmvHht3lN9UQ2p-1" value="&lt;font style=&quot;font-size: 20px;&quot;&gt;&lt;b&gt;$$B(s_t)&amp;gt;\nu$$&lt;/b&gt;&lt;/font&gt;" style="text;html=1;align=center;verticalAlign=middle;resizable=0;points=[];autosize=1;strokeColor=none;fillColor=none;" parent="1" vertex="1">
          <mxGeometry x="310" y="500" width="170" height="40" as="geometry" />
        </mxCell>
        <mxCell id="hwfw9dhmvHht3lN9UQ2p-2" value="&lt;font style=&quot;font-size: 20px;&quot;&gt;unsafe action&lt;br&gt;&lt;/font&gt;" style="text;html=1;align=center;verticalAlign=middle;resizable=0;points=[];autosize=1;strokeColor=none;fillColor=none;" parent="1" vertex="1">
          <mxGeometry x="600" y="510" width="140" height="40" as="geometry" />
        </mxCell>
        <mxCell id="hwfw9dhmvHht3lN9UQ2p-3" value="&lt;font style=&quot;font-size: 20px;&quot;&gt;closest safe action&lt;br&gt;&lt;/font&gt;" style="text;html=1;align=center;verticalAlign=middle;resizable=0;points=[];autosize=1;strokeColor=none;fillColor=none;" parent="1" vertex="1">
          <mxGeometry x="590" y="390" width="190" height="40" as="geometry" />
        </mxCell>
      </root>
    </mxGraphModel>
  </diagram>
</mxfile>
